<svg width="800" height="600" viewBox="0 0 800 600" xmlns="http://www.w3.org/2000/svg">
  <defs>
    <linearGradient id="g" x1="0" y1="0" x2="1" y2="1">
      <stop offset="0" stop-color="#0e1316"/>
      <stop offset="1" stop-color="#07070a"/>
    </linearGradient>
    <radialGradient id="r" cx="50%" cy="30%" r="70%">
      <stop offset="0" stop-color="#ff2d55" stop-opacity="0.28"/>
      <stop offset="1" stop-color="#000" stop-opacity="0"/>
    </radialGradient>
  </defs>
  <rect width="800" height="600" fill="url(#g)"/>
  <rect width="800" height="600" fill="url(#r)"/>
  <path d="M400 120c44 0 80 36 80 80 0 36-24 66-56 76l8 64 44 62c14 20 4 48-22 54-28 6-58 10-54 30 4 20-24 36-48 36s-52-16-48-36c4-20-26-24-54-30-26-6-36-34-22-54l44-62 8-64c-32-10-56-40-56-76 0-44 36-80 80-80Z" fill="#0b0f12" stroke="rgba(255,255,255,0.08)" stroke-width="4"/>
  <rect x="280" y="520" width="240" height="34" rx="16" fill="rgba(255,255,255,0.04)" stroke="rgba(255,255,255,0.08)" stroke-width="3"/>
</svg>
