<svg width="800" height="600" viewBox="0 0 800 600" xmlns="http://www.w3.org/2000/svg">
  <defs>
    <linearGradient id="g" x1="0" y1="0" x2="1" y2="1">
      <stop offset="0" stop-color="#121018"/>
      <stop offset="1" stop-color="#07070a"/>
    </linearGradient>
  </defs>
  <rect width="800" height="600" fill="url(#g)"/>
  <path d="M320 150h160c18 0 34 14 34 32 0 10-6 20-14 26 34 52 58 122 58 184 0 124-84 200-158 200s-158-76-158-200c0-62 24-132 58-184-8-6-14-16-14-26 0-18 16-32 34-32Z" fill="#0d0c12" stroke="rgba(255,255,255,0.08)" stroke-width="4"/>
  <path d="M260 294c44 12 96 18 140 18s96-6 140-18" fill="none" stroke="#ff2d55" stroke-opacity="0.34" stroke-width="6" stroke-linecap="round"/>
  <path d="M280 360c34 10 76 16 120 16s86-6 120-16" fill="none" stroke="rgba(255,255,255,0.12)" stroke-width="5" stroke-linecap="round"/>
</svg>
