<svg width="800" height="600" viewBox="0 0 800 600" xmlns="http://www.w3.org/2000/svg">
  <defs>
    <linearGradient id="g" x1="0" y1="0" x2="1" y2="1">
      <stop offset="0" stop-color="#1a1a22"/>
      <stop offset="1" stop-color="#0a0a0f"/>
    </linearGradient>
    <radialGradient id="r" cx="55%" cy="25%" r="70%">
      <stop offset="0" stop-color="#ff2d55" stop-opacity="0.35"/>
      <stop offset="1" stop-color="#000" stop-opacity="0"/>
    </radialGradient>
  </defs>
  <rect width="800" height="600" fill="url(#g)"/>
  <rect width="800" height="600" fill="url(#r)"/>
  <path d="M400 120c120 0 200 86 200 196 0 138-96 242-200 242S200 454 200 316c0-110 80-196 200-196Z" fill="#101018" stroke="rgba(255,255,255,0.08)" stroke-width="4"/>
  <path d="M335 290c0 22-18 40-40 40s-40-18-40-40 18-40 40-40 40 18 40 40Z" fill="rgba(255,255,255,0.08)"/>
  <path d="M545 290c0 22-18 40-40 40s-40-18-40-40 18-40 40-40 40 18 40 40Z" fill="rgba(255,255,255,0.08)"/>
  <path d="M400 360c52 0 94 22 94 50s-42 50-94 50-94-22-94-50 42-50 94-50Z" fill="rgba(255,45,85,0.16)" stroke="rgba(255,45,85,0.28)" stroke-width="4"/>
</svg>
